Coordinates
version=1
nRows=8
nColumns=63
inDegrees=yes

Units are S.I. units (second, meters, Newtons, ...)
If the header above contains a line with 'inDegrees', this indicates whether rotational values are in degrees (yes) or radians (no).

endheader
time	pelvis_tilt	pelvis_list	pelvis_rotation	pelvis_tx	pelvis_ty	pelvis_tz	hip_flexion_r	hip_adduction_r	hip_rotation_r	knee_angle_r	knee_angle_r_beta	ankle_angle_r	subtalar_angle_r	mtp_angle_r	hip_flexion_l	hip_adduction_l	hip_rotation_l	knee_angle_l	knee_angle_l_beta	ankle_angle_l	subtalar_angle_l	mtp_angle_l	L5_S1_Flex_Ext	L5_S1_Lat_Bending	L5_S1_axial_rotation	L4_L5_Flex_Ext	L4_L5_Lat_Bending	L4_L5_axial_rotation	L3_L4_Flex_Ext	L3_L4_Lat_Bending	L3_L4_axial_rotation	L2_L3_Flex_Ext	L2_L3_Lat_Bending	L2_L3_axial_rotation	L1_L2_Flex_Ext	L1_L2_Lat_Bending	L1_L2_axial_rotation	L1_T12_Flex_Ext	L1_T12_Lat_Bending	L1_T12_axial_rotation	Abs_r3	Abs_r2	Abs_r1	Abs_t1	Abs_t2	neck_flexion	neck_bending	neck_rotation	arm_flex_r	arm_add_r	arm_rot_r	elbow_flex_r	pro_sup_r	wrist_flex_r	wrist_dev_r	arm_flex_l	arm_add_l	arm_rot_l	elbow_flex_l	pro_sup_l	wrist_flex_l	wrist_dev_l
      2.74358974	     -1.03826102	      0.76906777	     89.08394410	      0.24116995	      0.89057404	      0.62713814	     -7.44271086	      0.63047527	      7.03197565	      7.10665171	      0.12403447	     35.83480851	    -16.73564394	      0.00000000	     -6.62269834	     -2.31120709	     -8.30249405	      7.96195985	      0.13896241	     39.67025290	     16.49103459	      0.00000000	     -0.83216989	     -0.08633200	     -2.21475938	     -1.54542270	     -0.11482155	     -2.35318184	     -1.36717191	     -0.20990761	     -2.35318184	     -0.95108697	     -0.20990761	     -1.93791445	     -0.77275296	     -0.17604821	     -1.79949199	     -0.47550187	     -0.13372826	     -1.66106953	     -5.94410630	     -0.97660480	    -12.31782722	      0.00000000	      0.00000000	    -13.01614794	      7.38415042	     -0.59322046	     83.38866220	     -6.01983608	     -2.66497805	    135.97668847	     88.42666103	     -2.57134317	     33.04183801	     91.88167864	    -15.21660070	      8.74406440	    125.62621300	     88.07304286	    -10.75244781	     20.47424706
      2.76923077	     -1.56201619	      0.36639734	     89.65067042	      0.24179037	      0.89078078	      0.62821254	     -6.99594458	      0.24469756	      7.17454485	      7.25827828	      0.12668085	     35.76739549	    -16.74774398	      0.00000000	     -5.92406602	     -1.95585557	     -8.41773526	      8.16948448	      0.14258440	     39.51604706	     16.62199968	      0.00000000	     -0.76612293	     -0.15072994	     -2.19092369	     -1.42276689	     -0.20047082	     -2.32785642	     -1.25866336	     -0.36648477	     -2.32785642	     -0.87560189	     -0.36648477	     -1.91705823	     -0.71142175	     -0.30736849	     -1.78012550	     -0.43776264	     -0.23348067	     -1.64319277	     -5.47233945	     -1.70508719	    -12.18526029	      0.00000000	      0.00000000	    -13.12356528	      6.67694470	     -0.35983732	     80.86580257	     -3.74705952	     -2.98197811	    136.18441591	     88.15442864	     -4.25442746	     32.11987890	     90.36049648	    -14.95374883	      6.95985637	    127.78014657	     88.27128873	    -11.29493708	     19.15835086
      2.79487179	     -1.92799093	     -0.04476759	     90.29318040	      0.24183554	      0.89097417	      0.62913109	     -6.58430866	     -0.00825565	      7.22665816	      7.31950208	      0.12774941	     35.69122687	    -16.78654892	      0.00000000	     -5.24007016	     -1.73474705	     -8.55172737	      8.37569845	      0.14618352	     39.35230916	     16.96717235	      0.00000000	     -0.71254289	     -0.18483965	     -2.22629956	     -1.32326340	     -0.24583674	     -2.36544328	     -1.17063672	     -0.44941913	     -2.36544328	     -0.81436527	     -0.44941913	     -1.94801211	     -0.66166733	     -0.37692502	     -1.80886839	     -0.40714701	     -0.28631662	     -1.66972467	     -5.08962261	     -2.09094311	    -12.38201024	      0.00000000	      0.00000000	    -12.99266533	      5.80035386	      0.24148995	     77.61340646	     -1.97688445	     -1.49035428	    136.54429050	     87.81894519	    -11.30765759	     28.28903737	     87.72331175	    -15.29317237	      5.09753844	    130.69238605	     88.56644594	    -14.52105640	     14.94856213
      2.82051282	     -2.05232517	     -0.44702227	     90.73232254	      0.24154224	      0.89108131	      0.62954407	     -6.18781870	     -0.08392805	      7.29551562	      7.34591572	      0.12821042	     35.64257427	    -16.69728425	      0.00000000	     -4.68540231	     -1.67637723	     -8.47594011	      8.48313049	      0.14805856	     39.14870989	     17.04837627	      0.00000000	     -0.66158054	     -0.19284582	     -2.28731177	     -1.22862122	     -0.25648495	     -2.43026876	     -1.08691067	     -0.46888534	     -2.43026876	     -0.75612040	     -0.46888534	     -2.00139780	     -0.61434369	     -0.39325120	     -1.85844082	     -0.37802712	     -0.29871818	     -1.71548383	     -4.72560363	     -2.18151053	    -12.72134190	      0.00000000	      0.00000000	    -12.77889247	      4.39546574	      0.55122605	     73.59831732	     -0.23477709	     -1.15057842	    137.15242033	     87.28327992	    -12.83612647	     24.51490862	     83.91925869	    -14.99652763	      2.76357385	    133.72451080	     88.50618369	    -16.68302812	     10.82103939
      2.84615385	     -2.10519795	     -0.84579147	     90.98764057	      0.24134844	      0.89113958	      0.62930723	     -5.90294940	     -0.13008354	      7.42442280	      7.15084357	      0.12480576	     35.48083473	    -16.59458912	      0.00000000	     -4.25787822	     -1.64765825	     -8.42142943	      8.47706061	      0.14795262	     38.91299343	     17.10882922	      0.00000000	     -0.61273778	     -0.21938568	     -2.35785951	     -1.13791532	     -0.29178296	     -2.50522573	     -1.00666689	     -0.53341435	     -2.50522573	     -0.70029800	     -0.53341435	     -2.06312707	     -0.56898830	     -0.44737129	     -1.91576085	     -0.35011836	     -0.33982843	     -1.76839463	     -4.37672466	     -2.48173474	    -13.11370725	      0.00000000	      0.00000000	    -12.51186168	      3.78946954	      0.39527668	     68.70823631	      0.91138033	     -1.36274865	    138.81673207	     86.79719581	    -13.52586352	     22.85920959	     79.32316155	    -14.09720495	      1.50402684	    136.30582074	     87.83014940	    -17.89896000	      8.53887798
      2.87179487	     -1.89112687	     -1.25573800	     91.35110249	      0.24009483	      0.89090378	      0.62848998	     -5.62632768	      0.05678657	      7.36369570	      6.98952272	      0.12199018	     35.31621886	    -16.53293419	      0.00000000	     -3.85596623	     -1.82823453	     -8.02019511	      8.42174016	      0.14698709	     38.83051689	     17.03370871	      0.00000000	     -0.55455324	     -0.19587957	     -2.47633213	     -1.02986083	     -0.26051983	     -2.63110289	     -0.91107552	     -0.47626159	     -2.63110289	     -0.63379890	     -0.47626159	     -2.16679061	     -0.51495814	     -0.39943762	     -2.01201986	     -0.31687172	     -0.30341746	     -1.85724910	     -3.96111836	     -2.21582890	    -13.77261641	      0.00000000	      0.00000000	    -11.89614534	      3.00193630	      0.72888031	     63.31819744	      1.54337031	     -0.63904367	    139.93443249	     86.50115084	    -13.86946782	     17.80498144	     73.64261143	    -13.77769328	      1.41024915	    137.64336958	     85.62207088	    -19.03933638	      2.01293767
      2.89743590	     -1.78433967	     -1.65600785	     91.52538637	      0.23941487	      0.89001767	      0.62648973	     -5.44464954	      0.12700866	      7.46410855	      6.77676950	      0.11827694	     35.38921395	    -16.42636599	      0.00000000	     -3.63755015	     -1.88608614	     -7.76882481	      8.20016467	      0.14311987	     38.89838721	     16.98187554	      0.00000000	     -0.46764536	     -0.19947599	     -2.49477201	     -0.86846420	     -0.26530307	     -2.65069526	     -0.76829456	     -0.48500593	     -2.65069526	     -0.53447188	     -0.48500593	     -2.18292551	     -0.43425548	     -0.40677145	     -2.02700226	     -0.26721256	     -0.30898832	     -1.87107901	     -3.34034404	     -2.25651235	    -13.87517349	      0.00000000	      0.00000000	    -10.93148390	      3.57596101	      1.09562736	     57.64051472	      2.19991672	     -0.60450511	    141.61846639	     87.19055918	    -12.97250251	     15.27585204	     67.59557897	    -12.88056220	      1.43878462	    138.40499996	     83.07533916	    -18.26667356	     -3.40935538
      2.92307692	     -1.65972297	     -1.95450084	     91.69962367	      0.23870052	      0.88847445	      0.62375303	     -5.42999085	      0.22271415	      7.58742045	      6.54892291	      0.11430027	     35.63722923	    -16.38094833	      0.00000000	     -3.55240737	     -1.96589517	     -7.53583945	      8.01851368	      0.13994946	     39.20217856	     16.88614692	      0.00000000	     -0.36314537	     -0.19925396	     -2.42495345	     -0.67439726	     -0.26500776	     -2.57651304	     -0.59661153	     -0.48446607	     -2.57651304	     -0.41503884	     -0.48446607	     -2.12183427	     -0.33721679	     -0.40631867	     -1.97027468	     -0.20750126	     -0.30864438	     -1.81871509	     -2.59391106	     -2.25400061	    -13.48686361	      0.00000000	      0.00000000	     -9.64638827	      4.78734386	      1.07632587	     52.06487777	      2.31378007	     -1.06233063	    143.62213508	     87.98214947	    -11.14559006	     15.36840573	     61.73820382	    -11.42006025	      1.37119095	    138.57482583	     80.62993264	    -16.25526649	     -8.26146581
